<?xml version="1.0" encoding="iso-8859-1"?>
<!-- Uploaded to: SVG Repo, www.svgrepo.com, Generator: SVG Repo Mixer Tools -->
<svg version="1.1" id="Layer_1" xmlns="http://www.w3.org/2000/svg" xmlns:xlink="http://www.w3.org/1999/xlink" 
	 viewBox="0 0 512 512" xml:space="preserve">
<circle style="fill:#71E2F0;" cx="256" cy="256" r="256"/>
<path style="fill:#2FC1CC;" d="M511.912,249.273L365.349,102.71c-16.743,14.719-34.802,28.887-40.393,49.855
	c-18.963,53.441-25.859,115.502-67.232,155.152c-37.926,36.202-57.032,72.62-77.719,117.441c-1.893,4.26-3.75,16.169-4.206,21.03
	l65.374,65.374C246.081,511.843,251.021,512,256,512c141.384,0,256-114.616,256-256C512,253.75,511.969,251.507,511.912,249.273z"/>
<polygon style="fill:#386895;" points="175.799,446.188 196.525,425.462 217.252,446.188 217.252,384.01 175.799,384.01 "/>
<path style="fill:#263A7A;" d="M342.659,390.768H137.051V93.394h205.608c17.834,0,32.29,14.457,32.29,32.29v232.793
	C374.949,376.311,360.493,390.768,342.659,390.768z"/>
<path style="fill:#1D3266;" d="M342.659,93.394h-86.083v297.374h86.083c17.834,0,32.29-14.457,32.29-32.29V125.685
	C374.949,107.851,360.493,93.394,342.659,93.394z"/>
<rect x="137.051" y="197.473" style="fill:#5584AA;" width="237.899" height="89.212"/>
<rect x="256.569" y="197.473" style="fill:#487899;" width="118.381" height="89.212"/>
<rect x="285.737" y="93.401" style="fill:#121149;" width="29.737" height="297.374"/>
</svg>